# xmcd
# Track frame offsets:
# 150
# 18214
# 36922
# 54054
# 73363
# 87615
# 104319
# 118619
# 134713
# 149635
# 165470
# 182900
#
# Disc length: 2701 seconds
# Revision: 0
# Processed by: cddbd v1.4PL0 Copyright (c) Steve Scherf et al.
# Submitted via: VisiTrax 2.9.5.180 - For more info visit www.synapsa.com
#
DISCID=b00a8b0c
DTITLE=Terri Clark - Fearless
DYEAR=2000
DGENRE=
TTITLE0=No Fear
TTITLE1=Sometimes Goodbye
TTITLE2=Take My Time
TTITLE3=Empty
TTITLE4=Getting There
TTITLE5=Easy From Now On
TTITLE6=A Little Gasoline
TTITLE7=Last Thing I Wanted
TTITLE8=To Tell You Everything
TTITLE9=The Real Thing
TTITLE10=Midnight´s Gone
TTITLE11=Good Mother
EXTD=Mercury
EXTT0=
EXTT1=
EXTT2=
EXTT3=
EXTT4=
EXTT5=
EXTT6=
EXTT7=
EXTT8=
EXTT9=
EXTT10=
EXTT11=
PLAYORDER=
